<?xml version="1.0" standalone="no"?>
<!DOCTYPE svg PUBLIC "-//W3C//DTD SVG 20010904//EN"
 "http://www.w3.org/TR/2001/REC-SVG-20010904/DTD/svg10.dtd">
<svg version="1.0" xmlns="http://www.w3.org/2000/svg"
 width="260.000000pt" height="260.000000pt" viewBox="0 0 260.000000 260.000000"
 preserveAspectRatio="xMidYMid meet">
<metadata>
Created by potrace 1.11, written by Peter Selinger 2001-2013
</metadata>
<g transform="translate(0.000000,260.000000) scale(0.100000,-0.100000)"
fill="#000000" stroke="none">
<path d="M0 2533 l0 -67 82 -78 c45 -43 87 -78 94 -78 7 0 19 -8 26 -19 9 -12
29 -20 61 -22 26 -2 46 -1 45 3 -7 19 -285 327 -295 327 -9 1 -13 -19 -13 -66z"/>
<path d="M72 2581 c41 -58 189 -223 196 -217 7 8 -57 93 -96 128 -21 18 -51
50 -68 70 -29 38 -56 54 -32 19z"/>
<path d="M520 2576 c0 -13 -2 -30 -3 -38 -2 -7 -2 -10 0 -5 3 4 12 7 20 7 10
0 13 6 9 16 -3 9 -6 22 -6 30 0 8 -4 14 -10 14 -5 0 -10 -11 -10 -24z"/>
<path d="M660 2574 c0 -14 4 -23 10 -19 6 3 10 15 10 26 0 10 -4 19 -10 19 -5
0 -10 -12 -10 -26z"/>
<path d="M2099 2583 c-13 -16 -12 -17 4 -4 9 7 17 15 17 17 0 8 -8 3 -21 -13z"/>
<path d="M2125 2532 c-27 -37 -78 -106 -113 -154 -34 -48 -72 -92 -82 -98 -11
-6 -20 -17 -20 -25 0 -7 -49 -79 -109 -158 -60 -80 -114 -155 -120 -166 -7
-12 -18 -21 -26 -21 -8 0 -15 -8 -15 -19 0 -10 -9 -21 -20 -24 -12 -3 -20 -14
-20 -26 0 -12 -4 -21 -8 -21 -22 0 -43 -92 -24 -104 5 -3 22 2 38 10 22 12 49
14 115 10 48 -3 97 -10 110 -14 l24 -9 -23 -8 c-13 -4 -70 -7 -128 -7 -94 -1
-105 -3 -125 -24 -16 -17 -19 -29 -14 -53 4 -19 11 -28 20 -25 7 3 16 1 20 -5
3 -6 14 -11 25 -11 10 0 21 -8 25 -17 6 -16 9 -15 28 7 24 27 84 57 94 46 3
-3 15 13 25 35 l18 41 60 -4 c53 -4 60 -2 60 14 0 23 5 23 47 -3 28 -18 37
-19 43 -8 6 9 0 18 -19 30 -61 37 -77 99 -37 146 20 23 32 28 70 28 60 0 90
-28 91 -87 4 -101 6 -114 15 -93 5 11 9 49 10 85 1 36 6 74 11 85 8 19 7 -124
-7 -569 -5 -169 -15 -218 -25 -123 -6 57 -14 76 -24 65 -3 -3 -10 -50 -16
-104 -5 -55 -17 -112 -26 -127 -15 -28 -15 -29 5 -18 11 6 23 16 25 23 3 7 6
4 6 -8 1 -30 -22 -56 -50 -56 -13 0 -53 3 -89 7 -65 8 -94 20 -85 35 3 5 1 11
-4 14 -5 3 0 23 10 43 28 54 25 63 -20 63 -34 0 -39 3 -43 28 -3 15 -3 66 1
114 6 81 8 88 36 109 17 13 41 34 54 47 17 17 33 23 57 20 40 -3 40 -3 48 49
4 31 2 46 -10 57 -18 19 -67 18 -104 -1 -33 -17 -52 -16 -76 2 -29 22 -34 18
-34 -26 0 -22 -5 -49 -10 -60 -11 -20 -45 -26 -54 -10 -8 12 -42 3 -57 -15
-17 -21 -48 -18 -43 4 5 15 -2 17 -53 14 l-59 -4 -14 36 c-7 20 -17 31 -20 26
-5 -7 -11 -6 -18 3 -10 11 -9 21 3 43 19 37 19 134 0 180 -27 65 -169 105
-245 68 -57 -27 -51 -40 18 -34 70 6 125 -20 119 -57 -3 -15 2 -24 14 -28 11
-4 20 -11 20 -16 1 -5 2 -15 3 -21 0 -7 15 -15 31 -18 24 -4 31 -11 33 -33 4
-32 -21 -77 -43 -77 -8 0 -15 -8 -15 -17 0 -32 -20 8 -21 42 0 26 -7 24 -12
-2 -2 -8 -22 -34 -46 -60 -7 -8 -26 -17 -42 -20 -15 -3 -30 -11 -33 -19 -3 -8
-17 -14 -31 -14 -22 0 -25 4 -20 20 5 16 2 20 -17 20 -21 1 -22 1 -4 11 13 8
25 8 43 0 29 -13 43 -7 25 11 -7 7 -29 11 -50 11 -20 -1 -31 0 -24 3 6 3 12
13 12 21 0 10 6 13 16 9 8 -3 12 -2 9 4 -11 17 -52 11 -57 -8 -5 -19 -16 -22
-83 -22 -32 0 -37 -2 -22 -10 9 -6 17 -19 17 -28 0 -10 4 -22 10 -28 17 -17 0
-54 -25 -54 -22 0 -52 44 -36 54 13 8 0 56 -14 56 -8 0 -22 11 -33 25 -11 14
-24 25 -29 25 -5 0 -17 6 -27 13 -17 12 -17 16 -3 43 17 35 11 54 -35 108 -20
23 -40 37 -51 35 -13 -3 -9 -14 24 -56 23 -29 38 -57 34 -63 -8 -12 -115 87
-115 107 0 16 -14 17 -39 1 -17 -10 -30 -1 -113 83 -110 111 -198 189 -212
189 -6 -1 32 -42 84 -92 102 -98 102 -100 0 -19 -58 46 -69 51 -100 46 -28 -5
-40 -2 -55 14 -17 20 -17 22 -1 40 10 11 15 24 12 30 -4 5 -2 12 4 16 20 12 4
102 -25 140 -12 17 -16 18 -24 6 -6 -10 -2 -25 15 -50 13 -20 25 -47 26 -61 3
-21 -1 -25 -22 -22 -35 5 -48 15 -190 142 l-125 112 -3 -398 c-1 -220 0 -406
3 -414 5 -12 7 -12 15 0 5 8 6 18 4 22 -7 12 6 48 17 48 5 0 9 -18 9 -39 0
-22 5 -41 10 -43 11 -3 20 -168 10 -168 -4 0 -14 6 -24 13 -16 12 -17 15 -4
20 10 3 14 14 11 31 -6 30 -28 51 -43 41 -14 -9 -13 -52 2 -57 7 -3 11 -27 9
-70 -2 -58 0 -68 18 -78 19 -10 21 -19 19 -95 l-2 -84 -28 6 -28 5 0 -115 c0
-94 3 -116 15 -121 23 -8 29 16 22 95 -6 69 -6 70 21 80 15 6 54 11 86 12 l60
2 25 -49 c14 -27 27 -44 29 -37 2 6 10 11 18 11 8 0 14 10 14 25 0 18 5 25 19
25 20 0 19 -16 -4 -72 -5 -12 -3 -18 6 -18 11 0 11 -2 1 -9 -7 -4 -14 -23 -16
-42 -1 -19 -9 -50 -18 -69 -13 -30 -13 -37 -1 -51 9 -11 12 -29 7 -58 -7 -46
1 -51 34 -22 24 20 29 41 9 41 -9 0 -11 22 -6 95 3 53 9 98 13 102 3 3 6 -1 6
-11 0 -18 25 -15 88 10 18 7 55 16 82 20 l48 6 -3 -88 c-3 -49 -4 -114 -5
-145 0 -47 -5 -62 -30 -94 -17 -21 -29 -43 -27 -49 5 -15 120 -13 125 2 2 7 8
12 12 12 16 0 123 112 113 119 -12 8 -13 12 -18 141 -5 145 18 227 58 203 12
-7 11 -19 -9 -78 -17 -53 -21 -83 -17 -123 3 -29 10 -55 14 -58 5 -3 9 -12 9
-20 0 -9 11 -30 25 -48 14 -18 25 -36 25 -40 0 -16 61 -95 78 -100 9 -3 22
-22 28 -41 9 -30 8 -37 -7 -51 -10 -9 -24 -32 -31 -50 -7 -19 -16 -34 -20 -34
-4 0 -8 -11 -8 -25 0 -18 -5 -25 -20 -25 -11 0 -20 -4 -20 -10 0 -5 10 -10 21
-10 16 0 20 -5 16 -20 -3 -11 -1 -23 4 -26 5 -3 7 -9 4 -14 -3 -4 4 -6 15 -3
14 4 20 0 20 -10 0 -8 4 -17 9 -19 5 -1 7 -15 4 -30 -3 -15 -9 -25 -14 -22 -5
3 -9 0 -9 -5 0 -6 5 -11 10 -11 6 0 10 -11 10 -24 0 -22 -4 -24 -31 -19 -23 3
-30 1 -27 -9 3 -7 12 -12 22 -10 9 2 16 -3 16 -11 0 -7 6 -25 12 -40 l13 -27
163 0 c154 0 162 1 162 19 0 11 5 23 10 26 6 4 10 -5 10 -19 l0 -26 154 0
c175 0 166 -5 166 90 0 32 5 62 11 66 6 3 9 18 6 33 -7 31 6 57 22 47 6 -4 9
-11 6 -15 -2 -5 12 -8 33 -8 21 0 49 -4 62 -8 24 -8 24 -8 5 -16 -19 -7 -19
-8 3 -8 12 -1 21 -7 20 -14 -2 -6 3 -11 10 -9 6 1 12 -3 12 -9 0 -8 5 -8 15 1
10 9 15 9 15 1 0 -11 -12 -15 -41 -12 -9 1 -19 -6 -23 -15 -5 -14 -4 -15 9 -4
8 7 16 10 16 6 1 -3 2 -9 3 -13 1 -5 5 -14 9 -21 10 -14 2 -15 -22 -3 -14 8
-17 6 -16 -9 1 -10 7 -25 14 -34 12 -14 10 -16 -8 -16 -19 0 -31 -18 -13 -21
44 -8 57 -4 57 18 0 13 -4 23 -10 23 -5 0 -2 5 8 11 23 13 34 4 18 -14 -6 -8
-9 -22 -5 -31 6 -14 45 -16 400 -16 l394 0 0 263 0 262 -52 30 c-29 17 -73 42
-99 56 l-46 27 -17 -36 c-13 -26 -14 -37 -6 -42 19 -12 -6 -21 -35 -14 -19 5
-23 10 -16 17 6 6 11 34 11 62 0 46 -3 52 -30 68 -29 18 -30 18 -30 -2 0 -25
-15 -35 -28 -18 -15 17 -21 104 -8 117 20 20 36 10 36 -23 0 -27 6 -36 27 -46
14 -7 30 -8 34 -4 4 4 8 44 8 88 0 44 1 98 1 119 1 42 14 66 35 66 7 0 18 7
25 15 11 13 8 15 -19 15 -28 0 -32 3 -29 23 2 18 10 23 45 25 33 2 44 -1 52
-17 11 -19 6 -51 -8 -51 -4 0 -8 -16 -9 -35 -2 -20 -7 -46 -11 -59 -5 -12 -12
-72 -16 -132 l-6 -109 43 -18 c24 -9 58 -30 75 -46 17 -15 41 -31 52 -34 l21
-5 0 754 0 754 -27 -6 c-16 -4 -40 -13 -55 -21 -26 -12 -41 -2 -18 12 6 4 8
10 5 15 -3 5 3 14 12 20 15 10 16 11 1 6 -29 -9 -43 19 -29 64 16 53 36 72 75
68 29 -3 31 -1 34 35 2 20 1 37 -2 37 -3 0 -21 -10 -41 -21 -43 -26 -60 -16
-25 14 37 32 70 82 70 106 0 12 -2 21 -5 21 -15 0 -73 -64 -69 -75 6 -14 -34
-47 -48 -39 -11 7 19 52 74 107 48 48 48 48 48 116 l0 68 -144 2 -144 2 -68
-80 c-37 -45 -69 -81 -71 -81 -6 0 87 118 103 131 22 18 16 29 -14 29 -22 0
-37 -13 -81 -70 -29 -39 -58 -73 -65 -77 -6 -4 12 22 40 57 69 89 69 90 42 90
-17 0 -37 -19 -73 -68z m230 -84 c11 -74 3 -119 -25 -139 -29 -20 -220 -38
-220 -21 0 18 137 157 176 179 55 30 62 28 69 -19z m-215 -52 c0 -2 -8 -10
-17 -17 -16 -13 -17 -12 -4 4 13 16 21 21 21 13z m239 -83 c0 -5 -13 -18 -30
-31 -21 -17 -29 -20 -29 -9 0 8 10 22 23 30 24 18 37 21 36 10z m-37 -92 c6
-5 12 -97 9 -138 -1 -8 -16 -13 -40 -13 -33 0 -42 -4 -54 -28 -9 -19 -10 -33
-4 -44 11 -17 3 -48 -13 -48 -5 0 -10 10 -10 21 0 18 -4 20 -22 14 -30 -9 -91
-6 -101 4 -5 5 -6 19 -2 31 6 20 13 21 66 18 45 -2 59 0 59 11 0 11 -14 13
-72 8 -40 -3 -80 -8 -88 -11 -32 -12 -44 10 -44 86 l-1 73 110 8 c61 5 117 12
125 17 15 8 69 2 82 -9z m-2068 -357 c3 -9 6 -34 6 -57 0 -23 5 -49 10 -57 7
-12 13 -11 37 10 15 14 31 30 35 35 4 6 8 0 8 -11 0 -13 -8 -24 -20 -27 -16
-4 -18 -11 -13 -40 3 -20 2 -56 -1 -80 -6 -37 -11 -46 -31 -51 -22 -6 -25 -12
-25 -47 0 -39 1 -41 26 -35 28 7 64 -15 64 -40 0 -7 5 -14 10 -16 7 -2 7 -14
0 -37 -7 -26 -6 -37 5 -48 8 -8 15 -20 15 -27 0 -18 37 -49 49 -42 5 4 24 27
41 52 25 37 32 60 36 113 3 36 7 80 9 98 l4 32 -87 3 -87 3 0 70 0 70 82 -2
c67 -1 81 1 76 13 -3 9 17 3 57 -17 34 -18 73 -33 88 -34 15 -1 35 -3 45 -3
21 -2 77 -60 77 -81 0 -11 -12 -13 -62 -7 -60 6 -61 6 -44 -13 17 -18 16 -20
-3 -26 -12 -3 -25 -3 -31 0 -16 10 -23 -24 -9 -42 15 -17 85 -52 107 -53 6 0
13 10 13 23 1 12 5 4 10 -18 14 -71 13 -74 -24 -68 -28 4 -35 1 -44 -19 -11
-22 -12 -22 -12 -2 -1 12 -8 27 -16 34 -18 15 -10 31 10 23 8 -3 15 -1 15 5 0
5 -17 12 -37 16 -30 4 -41 2 -53 -13 -8 -10 -21 -20 -29 -23 -7 -2 -25 -33
-40 -69 -29 -72 -71 -129 -96 -129 -9 0 -29 7 -45 15 l-29 15 15 -28 c7 -15
14 -41 14 -59 0 -17 5 -35 10 -38 6 -3 10 -34 9 -68 -1 -46 -3 -56 -9 -37 -4
14 -8 41 -9 61 -1 37 -16 59 -40 59 -11 0 -10 -4 5 -15 18 -14 18 -16 1 -29
-12 -9 -14 -16 -8 -21 16 -9 13 -35 -4 -41 -8 -3 -26 4 -41 15 -15 12 -45 26
-67 32 -34 9 -43 8 -53 -5 -16 -23 -34 -20 -34 7 0 12 -3 32 -6 45 -6 21 -4
23 22 20 25 -3 30 2 41 32 6 19 12 59 12 89 l1 54 -37 -36 c-20 -20 -40 -37
-44 -37 -14 0 -17 27 -8 71 4 24 8 61 9 82 0 30 4 40 20 44 16 4 18 8 9 19
-18 22 -51 -1 -43 -31 8 -31 -6 -56 -17 -29 -4 10 -8 31 -8 46 -1 23 5 29 32
36 24 7 31 14 29 28 -6 40 6 123 21 142 7 9 6 25 -3 53 -12 36 -12 44 5 77 20
38 55 82 66 82 4 0 10 -7 13 -16z m-170 -20 c23 -9 20 -34 -3 -34 -22 0 -35
15 -26 30 7 12 8 12 29 4z m2306 -48 c0 -16 -18 -31 -27 -22 -8 8 5 36 17 36
5 0 10 -6 10 -14z m-2268 -91 c9 -33 1 -112 -13 -121 -10 -6 -51 14 -61 30 -4
6 -8 30 -8 53 0 32 5 46 23 58 31 21 49 15 59 -20z m2255 -57 c-4 -46 -7 -102
-7 -125 0 -24 -4 -43 -8 -43 -5 0 -9 24 -9 53 -1 28 -4 68 -7 87 -8 52 3 110
21 110 14 0 15 -12 10 -82z m-72 -27 c6 -11 -33 -36 -42 -27 -7 7 16 36 28 36
4 0 10 -4 14 -9z m-1515 -61 c0 -5 -4 -10 -10 -10 -5 0 -10 5 -10 10 0 6 5 10
10 10 6 0 10 -4 10 -10z m597 -112 c-8 -18 -20 -48 -27 -66 -27 -71 -94 -116
-108 -73 -3 10 0 12 11 8 11 -4 17 2 22 22 3 15 18 35 35 44 17 10 38 37 50
64 11 25 23 44 26 40 3 -3 -1 -20 -9 -39z m-507 2 c0 -5 -7 -10 -15 -10 -8 0
-15 5 -15 10 0 6 7 10 15 10 8 0 15 -4 15 -10z m70 -15 c0 -14 -6 -25 -13 -25
-21 0 -27 11 -16 31 14 27 29 23 29 -6z m110 -55 c-8 -5 -26 -9 -40 -9 l-25 1
25 8 c14 4 32 8 40 9 13 1 13 0 0 -9z m485 0 c3 -5 -1 -10 -9 -10 -8 0 -18 5
-21 10 -3 6 1 10 9 10 8 0 18 -4 21 -10z m110 -8 c21 4 23 3 14 -13 -12 -24
-41 -24 -62 -1 -19 21 -11 38 10 21 7 -6 24 -9 38 -7z m-795 -128 c0 -8 -7
-14 -15 -14 -8 0 -15 5 -15 10 0 6 -3 9 -7 9 -16 -3 -24 1 -19 10 8 13 56 0
56 -15z m-342 -46 c-2 -13 -10 -23 -18 -23 -8 0 -16 10 -18 23 -3 17 2 22 18
22 16 0 21 -5 18 -22z m272 -56 c0 -54 -4 -72 -19 -86 -15 -14 -20 -14 -29 -3
-13 15 -16 34 -14 93 2 32 7 43 25 52 36 17 37 15 37 -56z m1000 -37 c0 -28
-15 -34 -24 -9 -10 25 -7 34 9 34 9 0 15 -9 15 -25z m340 -67 c0 -16 -3 -19
-11 -11 -6 6 -8 16 -5 22 11 17 16 13 16 -11z m190 -2 c0 -14 -4 -28 -10 -31
-6 -3 -10 5 -10 19 0 19 -6 26 -27 29 -23 3 -21 4 10 6 33 1 37 -2 37 -23z
m-1720 -5 c14 -28 -1 -95 -23 -99 -14 -3 -17 4 -17 41 0 25 -3 52 -6 61 -9 24
33 21 46 -3z m1224 3 c9 -3 16 -13 16 -21 0 -20 -34 -12 -38 10 -4 19 -1 20
22 11z m-1134 -14 c0 -5 -5 -10 -11 -10 -5 0 -7 5 -4 10 3 6 8 10 11 10 2 0 4
-4 4 -10z m-146 -56 c4 -15 5 -29 2 -31 -10 -10 -56 -5 -71 7 -14 12 -12 15
12 31 38 25 50 24 57 -7z m-200 -25 c-3 -5 -10 -7 -15 -3 -5 3 -7 10 -3 15 3
5 10 7 15 3 5 -3 7 -10 3 -15z m1916 -4 c0 -8 -4 -15 -10 -15 -5 0 -10 7 -10
15 0 8 5 15 10 15 6 0 10 -7 10 -15z m-1628 -138 c-4 -62 -1 -95 8 -113 15
-27 7 -40 -25 -46 -19 -3 -20 2 -17 72 3 69 2 73 -11 55 -9 -11 -18 -17 -21
-14 -10 10 -19 97 -12 116 7 16 9 16 25 -6 l19 -24 7 44 c17 104 34 51 27 -84z
m1208 139 c0 -11 -19 -15 -25 -6 -3 5 1 10 9 10 9 0 16 -2 16 -4z m25 -60 c17
-26 33 -156 19 -156 -23 1 -41 29 -47 70 -3 25 -9 60 -13 78 -5 25 -3 32 10
32 8 0 23 -11 31 -24z m245 -40 c6 -8 27 -20 46 -26 44 -15 56 -38 38 -70 -13
-24 -13 -24 -14 -4 0 14 -10 26 -28 33 -37 15 -84 60 -77 72 9 13 21 11 35 -5z
m-63 -238 c27 -30 56 -88 44 -88 -5 0 -19 16 -31 35 -29 46 -49 67 -61 60 -5
-4 -9 -1 -9 4 0 19 36 12 57 -11z m-147 -7 c0 -5 -14 -12 -31 -16 -20 -5 -29
-11 -25 -21 3 -8 1 -14 -4 -14 -5 0 -12 -10 -15 -21 -6 -16 -9 -18 -15 -8 -7
11 -13 11 -33 0 -28 -15 -51 -6 -43 16 3 8 1 11 -4 8 -6 -3 -10 -1 -10 4 0 6
4 11 8 11 5 0 14 11 20 25 11 23 17 25 82 25 38 0 70 -4 70 -9z m-320 -78 c0
-32 -7 -27 -14 10 -3 16 -1 25 5 22 5 -4 9 -18 9 -32z m293 -2 c5 -21 -18 -37
-28 -21 -4 6 0 10 7 11 10 0 10 2 0 6 -6 2 -10 9 -6 14 9 15 21 10 27 -10z
m374 -7 c-3 -4 -14 -3 -24 0 -15 6 -15 8 -3 16 16 10 39 -4 27 -16z m86 19 c4
-3 -1 -12 -11 -19 -21 -16 -32 -17 -32 -4 0 6 7 10 16 10 8 0 12 5 9 10 -7 11
8 14 18 3z m-409 -18 c-5 -11 1 -15 26 -15 18 0 29 -4 25 -10 -3 -5 -14 -10
-24 -10 -20 0 -54 33 -44 43 12 12 22 7 17 -8z m429 -35 c-6 -21 -28 -27 -38
-10 -9 15 3 30 25 30 13 0 17 -5 13 -20z m-543 -274 c0 -2 -7 -6 -15 -10 -8
-3 -15 -1 -15 4 0 6 7 10 15 10 8 0 15 -2 15 -4z m235 -36 c3 -5 1 -10 -4 -10
-6 0 -11 5 -11 10 0 6 2 10 4 10 3 0 8 -4 11 -10z m-238 -56 c-3 -3 -12 -4
-19 -1 -8 3 -5 6 6 6 11 1 17 -2 13 -5z m23 -24 c0 -5 -5 -10 -11 -10 -5 0 -7
5 -4 10 3 6 8 10 11 10 2 0 4 -4 4 -10z m30 -20 c0 -5 -4 -10 -10 -10 -5 0
-10 5 -10 10 0 6 5 10 10 10 6 0 10 -4 10 -10z"/>
<path d="M547 1714 c-4 -4 -7 -29 -7 -56 0 -42 3 -49 18 -46 13 3 17 13 15 47
-2 44 -13 67 -26 55z"/>
<path d="M255 1443 c-21 -31 -8 -47 29 -37 16 4 26 13 26 25 0 10 5 19 12 19
20 0 -1 13 -26 16 -17 2 -30 -5 -41 -23z"/>
<path d="M1815 570 c-3 -6 1 -7 9 -4 18 7 21 14 7 14 -6 0 -13 -4 -16 -10z"/>
<path d="M1972 2488 c-15 -15 -16 -38 -2 -38 6 0 10 7 10 15 0 8 5 15 10 15 6
0 10 5 10 10 0 14 -13 13 -28 -2z"/>
<path d="M526 2463 c14 -66 27 -95 50 -110 22 -14 26 -14 47 0 23 15 47 74 47
116 0 20 -5 21 -75 21 l-75 0 6 -27z"/>
<path d="M1740 2475 c0 -8 4 -15 10 -15 5 0 7 7 4 15 -4 8 -8 15 -10 15 -2 0
-4 -7 -4 -15z"/>
<path d="M0 2389 c0 -31 7 -40 77 -94 42 -33 106 -86 142 -117 60 -52 88 -70
79 -50 -2 4 -69 72 -151 152 -147 144 -147 144 -147 109z"/>
<path d="M1908 2310 c-7 -24 -3 -38 8 -28 3 4 4 17 2 30 l-3 23 -7 -25z"/>
<path d="M1382 2210 c0 -19 2 -27 5 -17 2 9 2 25 0 35 -3 9 -5 1 -5 -18z"/>
<path d="M400 2198 c0 -11 -5 -15 -15 -12 -13 5 -12 -1 1 -48 18 -61 20 -63
42 -63 10 0 18 -9 20 -21 2 -13 16 -26 36 -34 26 -10 36 -22 45 -52 7 -21 20
-41 29 -44 9 -3 25 -10 34 -15 28 -14 30 -11 13 21 -8 16 -15 36 -15 45 0 9
-8 27 -19 40 -13 18 -21 21 -29 13 -7 -7 -13 -10 -15 -7 -37 46 -57 80 -57 96
0 25 -69 106 -70 81z"/>
<path d="M1626 1991 c-4 -7 -5 -15 -2 -18 9 -9 19 4 14 18 -4 11 -6 11 -12 0z"/>
<path d="M1596 1933 c-4 -9 -2 -21 4 -27 7 -7 10 -2 10 17 0 31 -5 34 -14 10z"/>
<path d="M1315 1890 c-19 -8 -19 -9 3 -9 12 -1 22 4 22 9 0 6 -1 10 -2 9 -2 0
-12 -4 -23 -9z"/>
<path d="M982 1748 c-17 -17 -15 -48 3 -48 8 0 15 -5 15 -10 0 -6 -7 -13 -15
-16 -18 -7 -20 -64 -2 -64 30 0 55 29 51 62 -1 18 -3 45 -3 61 -1 29 -27 37
-49 15z"/>
<path d="M2063 1713 c-19 -7 -16 -20 6 -26 17 -4 31 9 31 29 0 5 -21 4 -37 -3z"/>
<path d="M1140 1671 c0 -5 -9 -11 -19 -14 -15 -3 -18 -11 -14 -27 4 -16 8 -18
14 -9 4 7 5 17 3 21 -3 4 0 8 6 8 8 0 10 -9 6 -23 -4 -19 -1 -23 19 -25 13 -1
27 3 30 8 4 6 15 0 27 -15 28 -36 63 -33 82 7 15 29 15 33 0 50 -19 21 -80 25
-87 6 -3 -10 -9 -8 -24 5 -21 18 -43 23 -43 8z m135 -31 c3 -6 -1 -7 -9 -4
-18 7 -21 14 -7 14 6 0 13 -4 16 -10z m-34 -22 c10 -13 18 -17 19 -10 0 21 20
13 20 -8 0 -31 -44 -27 -58 5 -20 43 -11 48 19 13z"/>
<path d="M2005 1630 c-3 -5 3 -10 14 -10 12 0 21 5 21 10 0 6 -6 10 -14 10 -8
0 -18 -4 -21 -10z"/>
<path d="M2057 1600 c3 -11 7 -20 9 -20 2 0 4 9 4 20 0 11 -4 20 -9 20 -5 0
-7 -9 -4 -20z"/>
<path d="M1145 1580 c-3 -5 -2 -10 4 -10 5 0 13 5 16 10 3 6 2 10 -4 10 -5 0
-13 -4 -16 -10z"/>
<path d="M2045 1551 c-8 -15 5 -100 17 -107 6 -4 8 16 5 50 -4 58 -10 75 -22
57z"/>
<path d="M1700 1525 c-12 -30 -3 -56 16 -48 16 6 20 73 4 73 -6 0 -15 -11 -20
-25z"/>
<path d="M1988 1318 c9 -9 15 -9 24 0 9 9 7 12 -12 12 -19 0 -21 -3 -12 -12z"/>
<path d="M130 835 c-58 -30 -111 -54 -117 -54 -11 -1 -20 -41 -9 -41 2 0 30
15 63 33 32 18 73 39 91 46 17 7 32 17 32 22 0 5 8 9 18 9 19 0 42 18 42 32 0
13 -9 9 -120 -47z"/>
<path d="M170 615 c-7 -8 -19 -15 -26 -15 -8 0 -14 -4 -14 -10 0 -5 -9 -10
-19 -10 -11 0 -23 -5 -27 -11 -3 -6 -17 -9 -30 -6 -15 3 -24 0 -24 -9 0 -7 -7
-17 -16 -22 -14 -8 -14 -12 -3 -30 8 -12 17 -22 22 -22 4 0 5 5 2 10 -3 6 3
10 14 10 11 0 23 5 27 11 4 7 25 9 60 4 44 -5 55 -3 60 9 3 8 21 31 40 51 19
20 34 39 34 43 0 15 -88 12 -100 -3z m-70 -75 c0 -5 -4 -10 -9 -10 -6 0 -13 5
-16 10 -3 6 1 10 9 10 9 0 16 -4 16 -10z"/>
<path d="M821 274 c0 -11 3 -14 6 -6 3 7 2 16 -1 19 -3 4 -6 -2 -5 -13z"/>
<path d="M825 240 c-3 -5 3 -10 14 -10 12 0 21 5 21 10 0 6 -6 10 -14 10 -8 0
-18 -4 -21 -10z"/>
<path d="M885 220 c-3 -5 -1 -10 4 -10 6 0 11 5 11 10 0 6 -2 10 -4 10 -3 0
-8 -4 -11 -10z"/>
<path d="M843 123 c9 -2 23 -2 30 0 6 3 -1 5 -18 5 -16 0 -22 -2 -12 -5z"/>
<path d="M1670 60 c0 -11 7 -20 15 -20 7 0 19 -8 24 -17 9 -16 10 -16 11 3 0
12 -11 29 -25 38 -24 16 -25 16 -25 -4z"/>
<path d="M750 50 c0 -5 5 -10 10 -10 6 0 10 5 10 10 0 6 -4 10 -10 10 -5 0
-10 -4 -10 -10z"/>
<path d="M876 42 c-3 -6 -1 -14 5 -17 15 -10 25 3 12 16 -7 7 -13 7 -17 1z"/>
<path d="M778 3 c6 -2 18 -2 25 0 6 3 1 5 -13 5 -14 0 -19 -2 -12 -5z"/>
</g>
</svg>
