<svg version="1" xmlns="http://www.w3.org/2000/svg" width="346.667" height="346.667" viewBox="0 0 260.000000 260.000000"><path d="M0 130v130h260V0H0v130zM35 29.1c4.1 1.1 7.7 2.2 7.9 2.5.2.2-.5 1.4-1.7 2.7L39 36.6l45.8 46.3 45.7 46.2 46-46 45.9-46-2.4-2.6c-1.3-1.4-2.1-2.8-1.8-3.1.9-.9 16-4.6 16.5-4 .6.6-3.7 16.6-4.5 16.6-.3 0-1.5-.9-2.7-2l-2.1-1.9L179.5 86l-46 46 48.5 48.5c28.5 28.5 49.2 48.5 50.3 48.5 3.7 0 5.7 1.9 5.7 5.6 0 2.7-.5 3.7-2.5 4.6-3.7 1.7-7.5-.3-7.5-3.9 0-2.4-7.8-10.6-48.8-51.6L130.5 135l-47.8 47.8C43.6 222 35 231 35 233.2c0 3.1-2.3 5.8-5.1 5.8-2.3 0-5.9-3.4-5.9-5.5s3.6-5.5 5.8-5.5c.9 0 22.9-21.2 49.7-48l48-48L82 86.3C57 61.1 36.4 40.4 36.2 40.1c-.1-.2-1.3.6-2.7 1.9-1.4 1.3-2.7 2.1-2.9 1.9-.5-.5-4.6-14.9-4.6-16.1 0-1.1.7-1 9 1.3zm118.7 24.5l6.1 7.7L145.4 76l-14.5 14.7-14.2-14.4c-7.8-8-14.2-14.8-14.2-15.3s2.6-4.1 5.8-8l5.7-7h33.7l6 7.6zm-74.3 55.3c1.1 1.7-.6 4.1-2.9 4.1-3.7 0-5.3 1-7.4 4.3-4.5 7.4-3.1 21.2 2.7 25.7l2.7 2.2.3-7.1c.3-6.8.4-7.1 2.7-7.1 2.5 0 2.5 0 2.5 10 0 6.8-.4 10-1.1 10-3.9 0-9.4-2.8-12.4-6.3C55.9 132.3 62 108 75.7 108c1.7 0 3.4.4 3.7.9zm106.7.3c9.1 3 13.3 9.4 13.3 20.3 0 11.5-5.8 19.3-15.6 21l-3.8.7v-21.6c0-23.6-.3-22.6 6.1-20.4zm-42.6 75.4c0 2.3-22 46.4-23.1 46.4-.7 0-1.5-.4-1.9-.9-.3-.5 4.5-11.4 10.7-24.1 8.2-17 11.6-23 12.7-22.8.9.2 1.6.8 1.6 1.4zm-26 8.7c0 1-3.5 3.8-8.9 7.1l-8.8 5.4 5.3 3.4c3 1.9 7.1 4.4 9.2 5.7 3.9 2.4 4.2 2.8 2.8 4.9-.6 1-3.3-.3-10.9-5-13.7-8.5-13.8-9.4-.4-17.7 9.9-6.1 11.7-6.7 11.7-3.8zm39.4 3.9c13.3 8.1 13.4 9.2 1.9 16.3-13.1 8-12.6 7.8-13.7 5.7-.8-1.6.2-2.5 8-7.1 4.9-2.9 8.9-5.7 8.9-6.1 0-.5-3.8-3.2-8.5-6.1-7.9-4.8-9.5-6.5-7.8-8.2.9-1 .2-1.3 11.2 5.5z"/><path d="M112.1 53.9c-2.3 2.7-4.1 5.2-4.1 5.5 0 .3 2.2.6 4.8.6h4.8l2.7-5.5L123 49h-3.4c-2.9 0-4.1.8-7.5 4.9zM126.7 49.7c-.2.5-1.6 2.9-3.2 5.5l-2.7 4.8H140l-2.7-5.5c-2.6-5.2-2.9-5.5-6.4-5.5-2.1 0-4 .3-4.2.7zM139 49.5c0 .3 1.1 2.8 2.5 5.5l2.5 5h5.1c4 0 4.9-.3 4.2-1.3-7-9.1-7.7-9.7-11-9.7-1.8 0-3.3.2-3.3.5zM110 64.2c0 .2 3.4 3.7 7.6 7.8l7.7 7.5-4.1-7.5c-3.8-7-4.3-7.5-7.6-7.8-2-.2-3.6-.2-3.6 0zM125.5 72.9c2.4 4.9 4.8 9.2 5.3 9.5.8.5 9.2-15.7 9.2-17.7 0-.4-4.3-.7-9.5-.7H121l4.5 8.9zM140.6 71.7l-3.8 7.8 7.6-7.5c4.2-4.1 7.6-7.6 7.6-7.7 0-.2-1.7-.3-3.8-.3-3.7 0-3.8.1-7.6 7.7zM185 129.5c0 8.5.3 15.5.8 15.5 1.6 0 5.3-3.3 6.7-6 1.9-3.7 1.9-14 .1-18.4-1.3-3.1-4.9-6.6-6.8-6.6-.5 0-.8 7-.8 15.5z"/></svg>