<svg width="330" height="377" viewBox="0 0 330 377" version="1.1" xmlns="http://www.w3.org/2000/svg" xmlns:xlink="http://www.w3.org/1999/xlink">
<title>Wolf</title>
<desc>Created using Figma</desc>
<g id="Canvas" transform="translate(-3554 66)">
<g id="Wolf">
<g id="path1372">
<use xlink:href="#path0_fill" transform="matrix(-1 0 0 1 3884 -66)" fill="#343E4E" fill-opacity="0.6"/>
</g>
</g>
</g>
<defs>
<path id="path0_fill" d="M 42.8155 175.773C 49.0116 172.256 53.84 175.618 63.4226 170.143C 69.201 166.843 79.1336 165.531 109.641 154.727C 120.011 151.843 129.727 145.838 140.534 144.694C 149.003 143.746 157.145 140.997 165.445 139.152C 170.584 138.081 182.715 133.288 186.552 130.813C 197.032 127.701 205.794 122.828 215.519 118.39C 220.769 116.952 252.062 87.6244 250.25 85.8404C 249.662 85.2617 246.315 86.0261 242.16 87.6884C 234.452 90.7716 232.575 91.085 231.554 89.459C 230.821 88.2916 236.273 76.9243 237.85 76.3311C 239.806 73.7885 241.313 70.4726 243.169 67.6543C 249.271 58.1158 253.292 47.4761 257.677 37.0893C 260.187 30.3404 268.529 28.8251 272.013 22.9294C 272.403 21.7199 275.371 17.8962 278.609 14.4323C 281.847 10.9684 284.135 6.17649 286.32 3.78364C 290.065 -0.316206 290.513 -0.503877 294.099 0.527811L 297.904 1.62261C 298.312 4.61232 297.329 14.7596 301.43 15.3226C 302.589 15.3226 304.143 14.7254 304.885 13.9955C 307.55 11.3721 308.412 14.5191 307.218 22.5138C 306.582 26.7699 305.551 31.9007 304.926 33.9157C 303.923 37.1484 304.122 45.6372 305.695 66.7467C 306.792 81.4726 307.823 88.5067 309.745 94.394C 310.937 98.0435 312.403 102.558 313.004 104.426C 314.463 108.962 314.397 118.963 312.902 119.873C 310.533 120.647 309.244 117.283 307.044 117.822C 306.75 118.318 306.978 123.203 307.551 128.677C 310.22 154.16 310.085 160.195 306.849 160.195C 303.85 160.195 303.737 164.995 306.359 180.909C 307.047 192.114 302.666 183.977 299.186 184.384C 298.244 185.311 297.921 189.702 298.127 198.767L 298.424 211.816C 294.759 216.288 291.309 220.95 287.431 225.245C 285.036 227.955 285.659 232.018 285.466 235.396C 285.278 238.741 284.336 245.459 283.373 250.325C 280.885 262.901 279.444 270.359 278.033 277.972C 277.356 281.622 275.271 290.828 273.398 298.431L 269.994 312.255L 271.885 323.835C 272.925 330.204 273.979 335.613 274.225 335.856C 278.9 337.222 283.71 337.817 287.977 340.354C 293.304 343.409 299.306 344.376 304.212 348.237C 308.597 351.949 313.972 354.041 318.813 357.11C 322.945 359.807 333.73 377 328.681 377L 10.9764 377C 2.82663 377 9.60896 359.738 10.6032 355.133C 11.23 352.231 12.3269 341.644 13.0408 331.608C 13.7547 321.572 14.8225 312.362 15.4138 311.141C 16.0051 309.92 18.2384 307.741 20.3766 306.298C 24.749 303.349 21.5171 299.282 25.6581 296.71C 30.9744 293.409 38.5882 289.263 39.1707 289.211C 39.7532 289.159 40.9932 276.095 41.3487 275.529C 41.7042 274.962 42.4544 270.973 42.4714 270.314C 42.4884 269.655 43.0876 264.403 43.5326 261.898C 43.6024 258.831 41.305 256.523 41.305 255.937C 40.6976 252.142 37.6764 251.675 37.9871 247.752C 39.4104 242.833 34.2388 227.147 32.5545 224.521C 33.1632 221.661 51.423 249.973 41.0502 269.532C 38.3828 274.562 39.3105 276.28 36.5098 281.255C 24.6491 302.323 3.68523 330.199 0.109073 302.582C -0.681128 296.48 3.06909 278.25 3.43183 266.011C 3.85969 251.574 -0.903046 228.538 11.7999 207.475C 26.5343 183.043 29.3321 182.543 42.8155 175.773ZM 43.4872 368.022C 51.5808 363.629 52.1086 363.505 64.7061 363.026C 76.6135 362.573 93.9411 359.254 101.216 356.033C 107.094 353.43 113.324 351.514 115.911 351.514C 118.658 351.514 118.737 351.703 118.008 356.491C 117.319 361.012 117.46 361.467 119.551 361.467C 120.817 361.467 123.275 360.928 125.015 360.269C 126.754 359.61 131.117 358.598 134.71 358.021C 141.505 356.93 145.589 355.108 145.589 353.169C 145.589 352.546 142.287 347.068 138.251 340.993C 130.651 329.556 120.361 318.986 112.28 314.316C 107.343 311.462 106.071 308.812 107.042 303.408C 107.37 301.583 107.874 297.851 108.163 295.114C 108.721 289.816 109.017 290.394 99.1447 277.521C 94.9303 272.025 91.6672 270.269 91.6672 273.497C 87.3536 280.449 79.1851 284.092 74.5851 290.843C 62.3849 305.248 52.845 311.675 42.4889 320.549C 34.7514 325.493 28.5795 333.219 26.698 342.167C 25.9064 346.396 24.9527 351.1 24.5786 352.62C 23.6678 356.323 23.9548 357.526 27.6754 365.604C 29.9815 370.611 31.462 372.526 33.0254 372.526C 34.2143 372.526 38.9221 370.499 43.4872 368.022ZM 194.86 349.347C 200.323 347.785 204.187 343.196 209.597 341.556C 213.513 340.785 213.961 334.789 210.667 327.25C 208.156 321.504 208.233 314.129 210.837 311.041C 211.451 310.313 214.04 303.321 216.59 295.504C 220.796 282.609 221.272 279.974 221.718 267.107C 222.278 250.949 221.488 243.612 219.092 242.707C 218.181 242.363 214.892 242.659 211.784 243.366C 205.332 244.832 204.097 244.345 192.21 235.643C 182.295 228.385 174.908 225.52 164.232 224.793C 157.213 224.315 154.241 223.575 151.206 221.55C 148.326 219.627 144.977 218.723 138.685 218.171C 130.899 217.488 129.987 217.617 128.931 219.56C 127.4 222.376 127.948 225.992 130.828 232.078C 132.123 234.815 133.194 238.499 133.208 240.265C 133.233 243.584 137.941 254.538 140.651 257.584C 143.165 263.4 139.562 272 137.754 277.888C 136.769 281.765 136.899 285.396 135.403 289.174C 131.605 297.958 132.583 302.44 139.471 307.832C 144.475 310.905 147.314 314.967 150.154 319.996C 152.144 323.646 154.992 328.871 156.482 331.608C 158.027 334.859 159.314 336.631 162.721 337.011C 163.493 337.094 166.29 339.199 168.935 341.69C 173.137 345.645 174.209 346.132 177.412 345.541C 180.264 345.014 181.929 345.48 184.897 347.636C 189.19 350.754 189.617 350.827 194.86 349.347ZM 251.468 337.304C 253.085 335.712 250.495 327.858 247.006 323.777C 244.009 320.271 243.812 316.553 246.219 308.937C 249.981 297.036 253.126 283.933 255.759 269.2C 256.802 264.658 255.535 258.614 250.812 256.715C 250.124 256.941 248.83 259.577 247.936 262.572C 246.401 267.719 240.09 286.143 235.275 299.537C 234.073 302.883 232.066 309.812 230.816 314.935C 228.56 324.182 228.598 326.945 231.112 336.431C 232.2 340.535 232.383 340.669 235.818 339.86C 240.736 338.128 246.882 340.019 251.468 337.304Z"/>
</defs>
</svg>
